# Blender v3.2.0 OBJ File: 'horsie.blend'
# www.blender.org
mtllib horsie.mtl
o Circle
v -1.000000 0.000000 0.000000
v -0.707107 0.000000 0.707107
v 0.000000 0.000000 1.000000
v 0.707107 0.000000 0.707107
v 1.000000 0.000000 0.000000
v -1.000000 0.491292 0.000000
v -0.707107 0.491292 0.707107
v 0.000000 0.491292 1.000000
v 0.707107 0.491292 0.707107
v 1.000000 0.491292 0.000000
v -0.519921 0.491292 0.000000
v -0.367640 0.491292 0.367640
v 0.000000 0.491292 0.519921
v 0.367640 0.491292 0.367640
v 0.519921 0.491292 0.000000
v -0.670664 0.616367 0.000000
v -0.474231 0.616367 0.474231
v 0.000000 0.616367 0.670664
v 0.474231 0.616367 0.474231
v 0.670664 0.616367 0.000000
v -0.449529 0.734359 0.000000
v -0.317865 0.734359 0.317865
v 0.000000 0.734359 0.449529
v 0.317865 0.734359 0.317865
v 0.449529 0.734359 0.000000
v 0.544184 0.945421 0.317865
v 0.675848 0.945421 0.000000
v 1.004437 2.728819 0.317865
v 1.136101 2.728819 0.000000
v -0.109345 3.378291 0.317865
v 0.022319 3.378291 0.000000
v 0.003076 1.054621 0.412354
v -0.277696 1.063029 0.354857
v -0.400130 1.020013 0.000000
v -0.693606 0.000000 0.000000
v -0.490454 0.000000 0.490454
v 0.000000 0.000000 0.693606
v 0.490454 0.000000 0.490454
v 0.693606 0.000000 0.000000
v -0.081193 2.555573 0.462588
v 0.000000 0.000000 0.000000
v -0.288607 3.368454 0.291897
v -0.252478 3.360033 0.000000
v -0.103827 3.267371 0.317865
v -0.211842 3.130551 0.349809
v -0.181658 3.243092 0.000000
v -0.147382 3.382529 0.316789
v -1.195366 2.399125 0.365997
v -1.340032 2.177088 0.000000
v -0.077357 3.377851 0.000000
v -1.032722 2.090392 0.381838
v -1.045654 1.859411 0.000000
v 0.020822 3.267896 0.317865
v -0.301030 2.432953 0.451165
v -0.441044 2.112849 0.000000
v 0.152486 3.267896 0.000000
v -0.707107 0.000000 -0.707107
v 0.000000 0.000000 -1.000000
v 0.707107 0.000000 -0.707107
v -0.707107 0.491292 -0.707107
v 0.000000 0.491292 -1.000000
v 0.707107 0.491292 -0.707107
v -0.367640 0.491292 -0.367640
v 0.000000 0.491292 -0.519921
v 0.367640 0.491292 -0.367640
v -0.474231 0.616367 -0.474231
v 0.000000 0.616367 -0.670664
v 0.474231 0.616367 -0.474231
v -0.317865 0.734359 -0.317865
v 0.000000 0.734359 -0.449529
v 0.317865 0.734359 -0.317865
v 0.544184 0.945421 -0.317865
v 1.004437 2.728819 -0.317865
v -0.109345 3.378291 -0.317865
v 0.003076 1.054621 -0.412354
v -0.277696 1.063029 -0.354857
v -0.490454 0.000000 -0.490454
v 0.000000 0.000000 -0.693606
v 0.490454 0.000000 -0.490454
v -0.081193 2.555573 -0.462588
v -0.288607 3.368454 -0.291897
v -0.103827 3.267371 -0.317865
v -0.211842 3.130551 -0.349809
v -0.147382 3.382529 -0.316789
v -1.195366 2.399125 -0.365997
v -1.032722 2.090392 -0.381838
v 0.020822 3.267896 -0.317865
v -0.301030 2.432953 -0.451165
vt 0.000000 0.000000
vt 0.000000 0.000000
vt 0.000000 0.000000
vt 0.000000 0.000000
vt 0.000000 0.000000
vt 0.000000 0.000000
vt 0.000000 0.000000
vt 0.000000 0.000000
vt 0.000000 0.000000
vt 0.000000 0.000000
vt 0.000000 0.000000
vt 0.000000 0.000000
vt 0.000000 0.000000
vt 0.000000 0.000000
vt 0.000000 0.000000
vt 0.000000 0.000000
vt 0.000000 0.000000
vt 0.000000 0.000000
vt 0.000000 0.000000
vt 0.000000 0.000000
vt 0.000000 0.000000
vt 0.000000 0.000000
vt 0.000000 0.000000
vt 0.000000 0.000000
vt 0.000000 0.000000
vt 0.000000 0.000000
vt 0.000000 0.000000
vt 0.000000 0.000000
vt 0.000000 0.000000
vt 0.000000 0.000000
vt 0.000000 0.000000
vt 0.000000 0.000000
vt 0.000000 0.000000
vt 0.000000 0.000000
vt 0.000000 0.000000
vt 0.000000 0.000000
vt 0.000000 0.000000
vt 0.000000 0.000000
vt 0.000000 0.000000
vt 0.000000 0.000000
vt 0.000000 0.000000
vt 0.000000 0.000000
vt 0.000000 0.000000
vt 0.000000 0.000000
vt 0.000000 0.000000
vt 0.000000 0.000000
vt 0.000000 0.000000
vt 0.000000 0.000000
vt 0.000000 0.000000
vt 0.000000 0.000000
vt 0.000000 0.000000
vt 0.000000 0.000000
vt 0.000000 0.000000
vt 0.000000 0.000000
vt 0.000000 0.000000
vt 0.000000 0.000000
vt 0.000000 0.000000
vt 0.000000 0.000000
vt 0.000000 0.000000
vt 0.000000 0.000000
vt 0.000000 0.000000
vt 0.000000 0.000000
vt 0.000000 0.000000
vt 0.000000 0.000000
vt 0.000000 0.000000
vt 0.000000 0.000000
vt 0.000000 0.000000
vt 0.000000 0.000000
vt 0.000000 0.000000
vt 0.000000 0.000000
vt 0.000000 0.000000
vt 0.000000 0.000000
vt 0.000000 0.000000
vt 0.000000 0.000000
vt 0.000000 0.000000
vt 0.000000 0.000000
vt 0.000000 0.000000
vt 0.000000 0.000000
vt 0.000000 0.000000
vt 0.000000 0.000000
vt 0.000000 0.000000
vt 0.000000 0.000000
vt 0.000000 0.000000
vt 0.000000 0.000000
vt 0.000000 0.000000
vt 0.000000 0.000000
vt 0.000000 0.000000
vt 0.000000 0.000000
vn -0.7764 0.6303 0.0000
vn -0.5490 0.6303 -0.5490
vn -0.5490 -0.6303 -0.5490
vn -0.7764 -0.6303 -0.0000
vn -0.0000 0.6303 -0.7764
vn 0.5490 0.6303 -0.5490
vn 0.5490 -0.6303 -0.5490
vn -0.0000 -0.6303 -0.7764
vn 0.7764 0.6303 0.0000
vn 0.7764 -0.6303 -0.0000
vn -0.0000 -0.4443 -0.8959
vn -0.6335 -0.4443 -0.6335
vn 0.8959 -0.4443 -0.0000
vn 0.6335 -0.4443 -0.6335
vn -0.8959 -0.4443 0.0000
vn 0.7045 -0.0853 -0.7045
vn -0.0000 -0.0853 -0.9964
vn -0.7045 -0.0853 -0.7045
vn 0.9964 -0.0853 -0.0000
vn -0.9964 -0.0853 0.0000
vn -0.5121 -0.4440 -0.7353
vn -0.9862 -0.1658 0.0000
vn 0.5666 -0.6121 -0.5517
vn 0.0145 -0.5729 -0.8195
vn 0.0084 0.0266 -0.9996
vn -0.6040 0.3474 -0.7173
vn 0.7806 -0.6250 0.0000
vn -0.0127 -0.0819 -0.9966
vn -0.6461 -0.3307 -0.6879
vn -0.8756 0.4831 0.0000
vn 0.6474 -0.0057 -0.7621
vn 0.1770 0.0970 -0.9794
vn -0.9363 -0.3512 -0.0000
vn 0.6156 0.7880 -0.0000
vn 0.9988 -0.0482 -0.0000
vn -0.5491 -0.8357 -0.0000
vn -0.3705 -0.5470 -0.7507
vn -0.2006 -0.6914 -0.6940
vn -0.4251 -0.9052 0.0000
vn 0.0000 1.0000 0.0000
vn 0.4898 -0.3255 -0.8088
vn 0.0083 -0.1141 -0.9934
vn 0.0544 -0.7510 -0.6580
vn 0.0263 -0.9997 0.0000
vn 0.7727 -0.4778 -0.4180
vn 0.8532 -0.5216 0.0000
vn 0.9937 -0.1125 0.0000
vn 0.6983 -0.3207 -0.6399
vn 0.9971 0.0761 -0.0000
vn 0.2226 0.5572 -0.8000
vn 0.2356 0.9718 -0.0000
vn -0.5490 -0.6303 0.5490
vn -0.5490 0.6303 0.5490
vn -0.0000 0.6303 0.7764
vn -0.0000 -0.6303 0.7764
vn 0.5490 -0.6303 0.5490
vn 0.5490 0.6303 0.5490
vn -0.6335 -0.4443 0.6335
vn -0.0000 -0.4443 0.8959
vn 0.6335 -0.4443 0.6335
vn -0.0000 -0.0853 0.9964
vn 0.7045 -0.0853 0.7045
vn -0.7045 -0.0853 0.7045
vn -0.5121 -0.4440 0.7353
vn 0.0145 -0.5729 0.8195
vn 0.5666 -0.6121 0.5517
vn -0.6040 0.3474 0.7173
vn 0.0084 0.0266 0.9996
vn -0.6461 -0.3307 0.6879
vn -0.0127 -0.0819 0.9966
vn 0.6474 -0.0057 0.7621
vn 0.1770 0.0970 0.9794
vn -0.2006 -0.6914 0.6940
vn -0.3705 -0.5470 0.7507
vn 0.4898 -0.3255 0.8088
vn 0.0083 -0.1141 0.9934
vn 0.0544 -0.7510 0.6580
vn 0.7727 -0.4778 0.4180
vn 0.6983 -0.3207 0.6399
vn 0.2226 0.5572 0.8000
usemtl None
s 1
f 5/1/1 4/2/2 9/3/3 10/4/4
f 3/5/5 2/6/6 7/7/7 8/8/8
f 4/2/2 3/5/5 8/8/8 9/3/3
f 2/6/6 1/9/9 6/10/10 7/7/7
f 9/3/3 8/8/8 13/11/11 14/12/12
f 7/7/7 6/10/10 11/13/13 12/14/14
f 10/4/4 9/3/3 14/12/12 15/15/15
f 8/8/8 7/7/7 12/14/14 13/11/11
f 13/11/11 12/14/14 17/16/16 18/17/17
f 14/12/12 13/11/11 18/17/17 19/18/18
f 12/14/14 11/13/13 16/19/19 17/16/16
f 15/15/15 14/12/12 19/18/18 20/20/20
f 20/20/20 19/18/18 24/21/21 25/22/22
f 18/17/17 17/16/16 22/23/23 23/24/24
f 23/24/24 32/25/25 26/26/26 24/21/21
f 19/18/18 18/17/17 23/24/24 24/21/21
f 17/16/16 16/19/19 21/27/27 22/23/23
f 32/25/25 40/28/28 28/29/29 26/26/26
f 25/22/22 24/21/21 26/26/26 27/30/30
f 33/31/31 54/32/32 40/28/28 32/25/25
f 27/30/30 26/26/26 28/29/29 29/33/33
f 55/34/34 54/32/32 33/31/31 34/35/35
f 56/36/36 53/37/37 30/38/38 31/39/39
f 4/2/2 5/1/1 39/40/40 38/41/40
f 2/6/6 3/5/5 37/42/40 36/43/40
f 3/5/5 4/2/2 38/41/40 37/42/40
f 1/9/9 2/6/6 36/43/40 35/44/40
f 45/45/41 44/46/42 40/28/28 54/32/32
f 53/37/37 44/46/42 47/47/43 30/38/38
f 36/43/40 37/42/40 41/48/40 35/44/40
f 37/42/40 38/41/40 39/40/40 41/48/40
f 31/39/39 30/38/38 47/47/43 50/49/44
f 50/49/44 47/47/43 42/50/45 43/51/46
f 44/46/42 53/37/37 28/29/29 40/28/28
f 43/51/46 42/50/45 45/45/41 46/52/47
f 44/46/42 45/45/41 42/50/45 47/47/43
f 46/52/47 45/45/41 48/53/48 49/54/49
f 29/33/33 28/29/29 53/37/37 56/36/36
f 49/54/49 48/53/48 51/55/50 52/56/51
f 45/45/41 54/32/32 51/55/50 48/53/48
f 52/56/51 51/55/50 54/32/32 55/34/34
f 22/23/23 33/31/31 32/25/25 23/24/24
f 34/35/35 33/31/31 22/23/23 21/27/27
f 5/1/1 10/4/4 62/57/52 59/58/53
f 58/59/54 61/60/55 60/61/56 57/62/57
f 59/58/53 62/57/52 61/60/55 58/59/54
f 57/62/57 60/61/56 6/10/10 1/9/9
f 62/57/52 65/63/58 64/64/59 61/60/55
f 60/61/56 63/65/60 11/13/13 6/10/10
f 10/4/4 15/15/15 65/63/58 62/57/52
f 61/60/55 64/64/59 63/65/60 60/61/56
f 64/64/59 67/66/61 66/67/62 63/65/60
f 65/63/58 68/68/63 67/66/61 64/64/59
f 63/65/60 66/67/62 16/19/19 11/13/13
f 15/15/15 20/20/20 68/68/63 65/63/58
f 20/20/20 25/22/22 71/69/64 68/68/63
f 67/66/61 70/70/65 69/71/66 66/67/62
f 70/70/65 71/69/64 72/72/67 75/73/68
f 68/68/63 71/69/64 70/70/65 67/66/61
f 66/67/62 69/71/66 21/27/27 16/19/19
f 75/73/68 72/72/67 73/74/69 80/75/70
f 25/22/22 27/30/30 72/72/67 71/69/64
f 76/76/71 75/73/68 80/75/70 88/77/72
f 27/30/30 29/33/33 73/74/69 72/72/67
f 55/34/34 34/35/35 76/76/71 88/77/72
f 56/36/36 31/39/39 74/78/73 87/79/74
f 59/58/53 79/80/40 39/40/40 5/1/1
f 57/62/57 77/81/40 78/82/40 58/59/54
f 58/59/54 78/82/40 79/80/40 59/58/53
f 1/9/9 35/44/40 77/81/40 57/62/57
f 83/83/75 88/77/72 80/75/70 82/84/76
f 87/79/74 74/78/73 84/85/77 82/84/76
f 77/81/40 35/44/40 41/48/40 78/82/40
f 78/82/40 41/48/40 39/40/40 79/80/40
f 31/39/39 50/49/44 84/85/77 74/78/73
f 50/49/44 43/51/46 81/86/78 84/85/77
f 82/84/76 80/75/70 73/74/69 87/79/74
f 43/51/46 46/52/47 83/83/75 81/86/78
f 82/84/76 84/85/77 81/86/78 83/83/75
f 46/52/47 49/54/49 85/87/79 83/83/75
f 29/33/33 56/36/36 87/79/74 73/74/69
f 49/54/49 52/56/51 86/88/80 85/87/79
f 83/83/75 85/87/79 86/88/80 88/77/72
f 52/56/51 55/34/34 88/77/72 86/88/80
f 69/71/66 70/70/65 75/73/68 76/76/71
f 34/35/35 21/27/27 69/71/66 76/76/71
